# terrain mesh: 1031 vertices, 830 faces
v 0.000000 0.000000 0.002218
v 0.005000 0.000000 0.002218
v 0.005000 0.005000 0.002218
v 0.000000 0.005000 0.002218
v 0.000000 0.005000 0.001546
v 0.005000 0.005000 0.001546
v 0.005000 0.010000 0.001546
v 0.000000 0.010000 0.001546
v 0.000000 0.010000 0.002441
v 0.005000 0.010000 0.002441
v 0.005000 0.015000 0.002441
v 0.000000 0.015000 0.002441
v 0.000000 0.015000 0.002536
v 0.005000 0.015000 0.002536
v 0.005000 0.020000 0.002536
v 0.000000 0.020000 0.002536
v 0.000000 0.020000 0.001091
v 0.005000 0.020000 0.001091
v 0.005000 0.025000 0.001091
v 0.000000 0.025000 0.001091
v 0.000000 0.025000 0.001415
v 0.005000 0.025000 0.001415
v 0.005000 0.030000 0.001415
v 0.000000 0.030000 0.001415
v 0.000000 0.030000 0.002130
v 0.005000 0.030000 0.002130
v 0.005000 0.035000 0.002130
v 0.000000 0.035000 0.002130
v 0.000000 0.035000 0.001908
v 0.005000 0.035000 0.001908
v 0.005000 0.040000 0.001908
v 0.000000 0.040000 0.001908
v 0.000000 0.040000 0.002058
v 0.005000 0.040000 0.002058
v 0.005000 0.045000 0.002058
v 0.000000 0.045000 0.002058
v 0.000000 0.045000 0.001640
v 0.005000 0.045000 0.001640
v 0.005000 0.050000 0.001640
v 0.000000 0.050000 0.001640
v 0.005000 0.000000 0.002506
v 0.010000 0.000000 0.002506
v 0.010000 0.005000 0.002506
v 0.005000 0.005000 0.002506
v 0.005000 0.005000 0.002455
v 0.010000 0.005000 0.002455
v 0.010000 0.010000 0.002455
v 0.005000 0.010000 0.002455
v 0.005000 0.010000 0.002099
v 0.010000 0.010000 0.002099
v 0.010000 0.015000 0.002099
v 0.005000 0.015000 0.002099
v 0.005000 0.015000 0.002630
v 0.010000 0.015000 0.002630
v 0.010000 0.020000 0.002630
v 0.005000 0.020000 0.002630
v 0.005000 0.020000 0.002300
v 0.010000 0.020000 0.002300
v 0.010000 0.025000 0.002300
v 0.005000 0.025000 0.002300
v 0.005000 0.025000 0.001636
v 0.010000 0.025000 0.001636
v 0.010000 0.030000 0.001636
v 0.005000 0.030000 0.001636
v 0.005000 0.030000 0.002250
v 0.010000 0.030000 0.002250
v 0.010000 0.035000 0.002250
v 0.005000 0.035000 0.002250
v 0.005000 0.035000 0.001587
v 0.010000 0.035000 0.001587
v 0.010000 0.040000 0.001587
v 0.005000 0.040000 0.001587
v 0.005000 0.040000 0.002505
v 0.010000 0.040000 0.002505
v 0.010000 0.045000 0.002505
v 0.005000 0.045000 0.002505
v 0.005000 0.045000 0.002041
v 0.010000 0.045000 0.002041
v 0.010000 0.050000 0.002041
v 0.005000 0.050000 0.002041
v 0.010000 0.000000 0.001974
v 0.015000 0.000000 0.001974
v 0.015000 0.005000 0.001974
v 0.010000 0.005000 0.001974
v 0.010000 0.005000 0.001726
v 0.015000 0.005000 0.001726
v 0.015000 0.010000 0.001726
v 0.010000 0.010000 0.001726
v 0.010000 0.010000 0.002677
v 0.015000 0.010000 0.002677
v 0.015000 0.015000 0.002677
v 0.010000 0.015000 0.002677
v 0.010000 0.015000 0.001989
v 0.015000 0.015000 0.001989
v 0.015000 0.020000 0.001989
v 0.010000 0.020000 0.001989
v 0.010000 0.020000 0.001852
v 0.015000 0.020000 0.001852
v 0.015000 0.025000 0.001852
v 0.010000 0.025000 0.001852
v 0.010000 0.025000 0.001890
v 0.015000 0.025000 0.001890
v 0.015000 0.030000 0.001890
v 0.010000 0.030000 0.001890
v 0.010000 0.030000 0.002332
v 0.015000 0.030000 0.002332
v 0.015000 0.035000 0.002332
v 0.010000 0.035000 0.002332
v 0.010000 0.035000 0.002249
v 0.015000 0.035000 0.002249
v 0.015000 0.040000 0.002249
v 0.010000 0.040000 0.002249
v 0.010000 0.040000 0.002272
v 0.015000 0.040000 0.002272
v 0.015000 0.045000 0.002272
v 0.010000 0.045000 0.002272
v 0.010000 0.045000 0.002281
v 0.015000 0.045000 0.002281
v 0.015000 0.050000 0.002281
v 0.010000 0.050000 0.002281
v 0.015000 0.000000 0.003137
v 0.020000 0.000000 0.003137
v 0.020000 0.005000 0.003137
v 0.015000 0.005000 0.003137
v 0.015000 0.005000 0.001863
v 0.020000 0.005000 0.001863
v 0.020000 0.010000 0.001863
v 0.015000 0.010000 0.001863
v 0.015000 0.010000 0.001810
v 0.020000 0.010000 0.001810
v 0.020000 0.015000 0.001810
v 0.015000 0.015000 0.001810
v 0.015000 0.015000 0.001659
v 0.020000 0.015000 0.001659
v 0.020000 0.020000 0.001659
v 0.015000 0.020000 0.001659
v 0.015000 0.020000 0.002374
v 0.020000 0.020000 0.002374
v 0.020000 0.025000 0.002374
v 0.015000 0.025000 0.002374
v 0.015000 0.025000 0.002631
v 0.020000 0.025000 0.002631
v 0.020000 0.030000 0.002631
v 0.015000 0.030000 0.002631
v 0.015000 0.030000 0.002009
v 0.020000 0.030000 0.002009
v 0.020000 0.035000 0.002009
v 0.015000 0.035000 0.002009
v 0.015000 0.035000 0.001646
v 0.020000 0.035000 0.001646
v 0.020000 0.040000 0.001646
v 0.015000 0.040000 0.001646
v 0.015000 0.040000 0.001654
v 0.020000 0.040000 0.001654
v 0.020000 0.045000 0.001654
v 0.015000 0.045000 0.001654
v 0.015000 0.045000 0.002391
v 0.020000 0.045000 0.002391
v 0.020000 0.050000 0.002391
v 0.015000 0.050000 0.002391
v 0.020000 0.000000 0.002438
v 0.025000 0.000000 0.002438
v 0.025000 0.005000 0.002438
v 0.020000 0.005000 0.002438
v 0.020000 0.005000 0.002338
v 0.025000 0.005000 0.002338
v 0.025000 0.010000 0.002338
v 0.020000 0.010000 0.002338
v 0.020000 0.010000 0.001733
v 0.025000 0.010000 0.001733
v 0.025000 0.015000 0.001733
v 0.020000 0.015000 0.001733
v 0.020000 0.015000 0.002182
v 0.025000 0.015000 0.002182
v 0.025000 0.020000 0.002182
v 0.020000 0.020000 0.002182
v 0.020000 0.020000 0.002124
v 0.025000 0.020000 0.002124
v 0.025000 0.025000 0.002124
v 0.020000 0.025000 0.002124
v 0.020000 0.025000 0.002175
v 0.025000 0.025000 0.002175
v 0.025000 0.030000 0.002175
v 0.020000 0.030000 0.002175
v 0.020000 0.030000 0.002502
v 0.025000 0.030000 0.002502
v 0.025000 0.035000 0.002502
v 0.020000 0.035000 0.002502
v 0.020000 0.035000 0.002178
v 0.025000 0.035000 0.002178
v 0.025000 0.040000 0.002178
v 0.020000 0.040000 0.002178
v 0.020000 0.040000 0.002405
v 0.025000 0.040000 0.002405
v 0.025000 0.045000 0.002405
v 0.020000 0.045000 0.002405
v 0.020000 0.045000 0.002100
v 0.025000 0.045000 0.002100
v 0.025000 0.050000 0.002100
v 0.020000 0.050000 0.002100
v 0.025000 0.000000 0.002211
v 0.030000 0.000000 0.002211
v 0.030000 0.005000 0.002211
v 0.025000 0.005000 0.002211
v 0.025000 0.005000 0.002382
v 0.030000 0.005000 0.002382
v 0.030000 0.010000 0.002382
v 0.025000 0.010000 0.002382
v 0.025000 0.010000 0.001337
v 0.030000 0.010000 0.001337
v 0.030000 0.015000 0.001337
v 0.025000 0.015000 0.001337
v 0.025000 0.015000 0.001906
v 0.030000 0.015000 0.001906
v 0.030000 0.020000 0.001906
v 0.025000 0.020000 0.001906
v 0.025000 0.020000 0.001831
v 0.030000 0.020000 0.001831
v 0.030000 0.025000 0.001831
v 0.025000 0.025000 0.001831
v 0.025000 0.025000 0.001747
v 0.030000 0.025000 0.001747
v 0.030000 0.030000 0.001747
v 0.025000 0.030000 0.001747
v 0.025000 0.030000 0.001928
v 0.030000 0.030000 0.001928
v 0.030000 0.035000 0.001928
v 0.025000 0.035000 0.001928
v 0.025000 0.035000 0.002813
v 0.030000 0.035000 0.002813
v 0.030000 0.040000 0.002813
v 0.025000 0.040000 0.002813
v 0.025000 0.040000 0.001633
v 0.030000 0.040000 0.001633
v 0.030000 0.045000 0.001633
v 0.025000 0.045000 0.001633
v 0.025000 0.045000 0.002550
v 0.030000 0.045000 0.002550
v 0.030000 0.050000 0.002550
v 0.025000 0.050000 0.002550
v 0.030000 0.000000 0.001225
v 0.035000 0.000000 0.001225
v 0.035000 0.005000 0.001225
v 0.030000 0.005000 0.001225
v 0.030000 0.005000 0.001899
v 0.035000 0.005000 0.001899
v 0.035000 0.010000 0.001899
v 0.030000 0.010000 0.001899
v 0.030000 0.010000 0.002147
v 0.035000 0.010000 0.002147
v 0.035000 0.015000 0.002147
v 0.030000 0.015000 0.002147
v 0.030000 0.015000 0.002359
v 0.035000 0.015000 0.002359
v 0.035000 0.020000 0.002359
v 0.030000 0.020000 0.002359
v 0.030000 0.020000 0.002422
v 0.035000 0.020000 0.002422
v 0.035000 0.025000 0.002422
v 0.030000 0.025000 0.002422
v 0.030000 0.025000 0.002463
v 0.035000 0.025000 0.002463
v 0.035000 0.030000 0.002463
v 0.030000 0.030000 0.002463
v 0.030000 0.030000 0.001892
v 0.035000 0.030000 0.001892
v 0.035000 0.035000 0.001892
v 0.030000 0.035000 0.001892
v 0.030000 0.035000 0.001835
v 0.035000 0.035000 0.001835
v 0.035000 0.040000 0.001835
v 0.030000 0.040000 0.001835
v 0.030000 0.040000 0.002495
v 0.035000 0.040000 0.002495
v 0.035000 0.045000 0.002495
v 0.030000 0.045000 0.002495
v 0.030000 0.045000 0.001970
v 0.035000 0.045000 0.001970
v 0.035000 0.050000 0.001970
v 0.030000 0.050000 0.001970
v 0.035000 0.000000 0.001428
v 0.040000 0.000000 0.001428
v 0.040000 0.005000 0.001428
v 0.035000 0.005000 0.001428
v 0.035000 0.005000 0.001499
v 0.040000 0.005000 0.001499
v 0.040000 0.010000 0.001499
v 0.035000 0.010000 0.001499
v 0.035000 0.010000 0.001606
v 0.040000 0.010000 0.001606
v 0.040000 0.015000 0.001606
v 0.035000 0.015000 0.001606
v 0.035000 0.015000 0.002315
v 0.040000 0.015000 0.002315
v 0.040000 0.020000 0.002315
v 0.035000 0.020000 0.002315
v 0.035000 0.020000 0.002137
v 0.040000 0.020000 0.002137
v 0.040000 0.025000 0.002137
v 0.035000 0.025000 0.002137
v 0.035000 0.025000 0.002411
v 0.040000 0.025000 0.002411
v 0.040000 0.030000 0.002411
v 0.035000 0.030000 0.002411
v 0.035000 0.030000 0.001852
v 0.040000 0.030000 0.001852
v 0.040000 0.035000 0.001852
v 0.035000 0.035000 0.001852
v 0.035000 0.035000 0.002145
v 0.040000 0.035000 0.002145
v 0.040000 0.040000 0.002145
v 0.035000 0.040000 0.002145
v 0.035000 0.040000 0.002379
v 0.040000 0.040000 0.002379
v 0.040000 0.045000 0.002379
v 0.035000 0.045000 0.002379
v 0.035000 0.045000 0.001911
v 0.040000 0.045000 0.001911
v 0.040000 0.050000 0.001911
v 0.035000 0.050000 0.001911
v 0.040000 0.000000 0.002294
v 0.045000 0.000000 0.002294
v 0.045000 0.005000 0.002294
v 0.040000 0.005000 0.002294
v 0.040000 0.005000 0.001735
v 0.045000 0.005000 0.001735
v 0.045000 0.010000 0.001735
v 0.040000 0.010000 0.001735
v 0.040000 0.010000 0.001884
v 0.045000 0.010000 0.001884
v 0.045000 0.015000 0.001884
v 0.040000 0.015000 0.001884
v 0.040000 0.015000 0.001875
v 0.045000 0.015000 0.001875
v 0.045000 0.020000 0.001875
v 0.040000 0.020000 0.001875
v 0.040000 0.020000 0.001468
v 0.045000 0.020000 0.001468
v 0.045000 0.025000 0.001468
v 0.040000 0.025000 0.001468
v 0.040000 0.025000 0.002310
v 0.045000 0.025000 0.002310
v 0.045000 0.030000 0.002310
v 0.040000 0.030000 0.002310
v 0.040000 0.030000 0.001831
v 0.045000 0.030000 0.001831
v 0.045000 0.035000 0.001831
v 0.040000 0.035000 0.001831
v 0.040000 0.035000 0.002072
v 0.045000 0.035000 0.002072
v 0.045000 0.040000 0.002072
v 0.040000 0.040000 0.002072
v 0.040000 0.040000 0.002306
v 0.045000 0.040000 0.002306
v 0.045000 0.045000 0.002306
v 0.040000 0.045000 0.002306
v 0.040000 0.045000 0.002289
v 0.045000 0.045000 0.002289
v 0.045000 0.050000 0.002289
v 0.040000 0.050000 0.002289
v 0.045000 0.000000 0.002399
v 0.050000 0.000000 0.002399
v 0.050000 0.005000 0.002399
v 0.045000 0.005000 0.002399
v 0.045000 0.005000 0.002017
v 0.050000 0.005000 0.002017
v 0.050000 0.010000 0.002017
v 0.045000 0.010000 0.002017
v 0.045000 0.010000 0.001854
v 0.050000 0.010000 0.001854
v 0.050000 0.015000 0.001854
v 0.045000 0.015000 0.001854
v 0.045000 0.015000 0.002026
v 0.050000 0.015000 0.002026
v 0.050000 0.020000 0.002026
v 0.045000 0.020000 0.002026
v 0.045000 0.020000 0.001222
v 0.050000 0.020000 0.001222
v 0.050000 0.025000 0.001222
v 0.045000 0.025000 0.001222
v 0.045000 0.025000 0.001342
v 0.050000 0.025000 0.001342
v 0.050000 0.030000 0.001342
v 0.045000 0.030000 0.001342
v 0.045000 0.030000 0.001405
v 0.050000 0.030000 0.001405
v 0.050000 0.035000 0.001405
v 0.045000 0.035000 0.001405
v 0.045000 0.035000 0.001567
v 0.050000 0.035000 0.001567
v 0.050000 0.040000 0.001567
v 0.045000 0.040000 0.001567
v 0.045000 0.040000 0.002266
v 0.050000 0.040000 0.002266
v 0.050000 0.045000 0.002266
v 0.045000 0.045000 0.002266
v 0.045000 0.045000 0.001613
v 0.050000 0.045000 0.001613
v 0.050000 0.050000 0.001613
v 0.045000 0.050000 0.001613
v 0.050000 0.000000 0.001877
v 0.055000 0.000000 0.001877
v 0.055000 0.005000 0.001877
v 0.050000 0.005000 0.001877
v 0.050000 0.005000 0.002716
v 0.055000 0.005000 0.002716
v 0.055000 0.010000 0.002716
v 0.050000 0.010000 0.002716
v 0.050000 0.010000 0.001888
v 0.055000 0.010000 0.001888
v 0.055000 0.015000 0.001888
v 0.050000 0.015000 0.001888
v 0.050000 0.015000 0.002435
v 0.055000 0.015000 0.002435
v 0.055000 0.020000 0.002435
v 0.050000 0.020000 0.002435
v 0.050000 0.020000 0.001599
v 0.055000 0.020000 0.001599
v 0.055000 0.025000 0.001599
v 0.050000 0.025000 0.001599
v 0.050000 0.025000 0.001963
v 0.055000 0.025000 0.001963
v 0.055000 0.030000 0.001963
v 0.050000 0.030000 0.001963
v 0.050000 0.030000 0.001591
v 0.055000 0.030000 0.001591
v 0.055000 0.035000 0.001591
v 0.050000 0.035000 0.001591
v 0.050000 0.035000 0.001897
v 0.055000 0.035000 0.001897
v 0.055000 0.040000 0.001897
v 0.050000 0.040000 0.001897
v 0.050000 0.040000 0.002486
v 0.055000 0.040000 0.002486
v 0.055000 0.045000 0.002486
v 0.050000 0.045000 0.002486
v 0.050000 0.045000 0.001202
v 0.055000 0.045000 0.001202
v 0.055000 0.050000 0.001202
v 0.050000 0.050000 0.001202
v 0.055000 0.000000 0.002283
v 0.060000 0.000000 0.002283
v 0.060000 0.005000 0.002283
v 0.055000 0.005000 0.002283
v 0.055000 0.005000 0.002185
v 0.060000 0.005000 0.002185
v 0.060000 0.010000 0.002185
v 0.055000 0.010000 0.002185
v 0.055000 0.010000 0.001769
v 0.060000 0.010000 0.001769
v 0.060000 0.015000 0.001769
v 0.055000 0.015000 0.001769
v 0.055000 0.015000 0.001343
v 0.060000 0.015000 0.001343
v 0.060000 0.020000 0.001343
v 0.055000 0.020000 0.001343
v 0.055000 0.020000 0.002102
v 0.060000 0.020000 0.002102
v 0.060000 0.025000 0.002102
v 0.055000 0.025000 0.002102
v 0.055000 0.025000 0.001801
v 0.060000 0.025000 0.001801
v 0.060000 0.030000 0.001801
v 0.055000 0.030000 0.001801
v 0.055000 0.030000 0.002182
v 0.060000 0.030000 0.002182
v 0.060000 0.035000 0.002182
v 0.055000 0.035000 0.002182
v 0.055000 0.035000 0.002077
v 0.060000 0.035000 0.002077
v 0.060000 0.040000 0.002077
v 0.055000 0.040000 0.002077
v 0.055000 0.040000 0.002867
v 0.060000 0.040000 0.002867
v 0.060000 0.045000 0.002867
v 0.055000 0.045000 0.002867
v 0.055000 0.045000 0.001946
v 0.060000 0.045000 0.001946
v 0.060000 0.050000 0.001946
v 0.055000 0.050000 0.001946
v 0.060000 0.000000 0.001554
v 0.065000 0.000000 0.001554
v 0.065000 0.005000 0.001554
v 0.060000 0.005000 0.001554
v 0.060000 0.005000 0.002156
v 0.065000 0.005000 0.002156
v 0.065000 0.010000 0.002156
v 0.060000 0.010000 0.002156
v 0.060000 0.010000 0.002176
v 0.065000 0.010000 0.002176
v 0.065000 0.015000 0.002176
v 0.060000 0.015000 0.002176
v 0.060000 0.015000 0.002746
v 0.065000 0.015000 0.002746
v 0.065000 0.020000 0.002746
v 0.060000 0.020000 0.002746
v 0.060000 0.020000 0.002484
v 0.065000 0.020000 0.002484
v 0.065000 0.025000 0.002484
v 0.060000 0.025000 0.002484
v 0.060000 0.025000 0.002244
v 0.065000 0.025000 0.002244
v 0.065000 0.030000 0.002244
v 0.060000 0.030000 0.002244
v 0.060000 0.030000 0.002798
v 0.065000 0.030000 0.002798
v 0.065000 0.035000 0.002798
v 0.060000 0.035000 0.002798
v 0.060000 0.035000 0.001472
v 0.065000 0.035000 0.001472
v 0.065000 0.040000 0.001472
v 0.060000 0.040000 0.001472
v 0.060000 0.040000 0.001746
v 0.065000 0.040000 0.001746
v 0.065000 0.045000 0.001746
v 0.060000 0.045000 0.001746
v 0.060000 0.045000 0.001603
v 0.065000 0.045000 0.001603
v 0.065000 0.050000 0.001603
v 0.060000 0.050000 0.001603
v 0.065000 0.000000 0.001871
v 0.070000 0.000000 0.001871
v 0.070000 0.005000 0.001871
v 0.065000 0.005000 0.001871
v 0.065000 0.005000 0.001378
v 0.070000 0.005000 0.001378
v 0.070000 0.010000 0.001378
v 0.065000 0.010000 0.001378
v 0.065000 0.010000 0.002384
v 0.070000 0.010000 0.002384
v 0.070000 0.015000 0.002384
v 0.065000 0.015000 0.002384
v 0.065000 0.015000 0.001955
v 0.070000 0.015000 0.001955
v 0.070000 0.020000 0.001955
v 0.065000 0.020000 0.001955
v 0.065000 0.020000 0.001331
v 0.070000 0.020000 0.001331
v 0.070000 0.025000 0.001331
v 0.065000 0.025000 0.001331
v 0.065000 0.025000 0.001558
v 0.070000 0.025000 0.001558
v 0.070000 0.030000 0.001558
v 0.065000 0.030000 0.001558
v 0.065000 0.030000 0.002223
v 0.070000 0.030000 0.002223
v 0.070000 0.035000 0.002223
v 0.065000 0.035000 0.002223
v 0.065000 0.035000 0.002485
v 0.070000 0.035000 0.002485
v 0.070000 0.040000 0.002485
v 0.065000 0.040000 0.002485
v 0.065000 0.040000 0.003064
v 0.070000 0.040000 0.003064
v 0.070000 0.045000 0.003064
v 0.065000 0.045000 0.003064
v 0.065000 0.045000 0.003523
v 0.070000 0.045000 0.003523
v 0.070000 0.050000 0.003523
v 0.065000 0.050000 0.003523
v 0.070000 0.000000 0.002273
v 0.075000 0.000000 0.002273
v 0.075000 0.005000 0.002273
v 0.070000 0.005000 0.002273
v 0.070000 0.005000 0.001571
v 0.075000 0.005000 0.001571
v 0.075000 0.010000 0.001571
v 0.070000 0.010000 0.001571
v 0.070000 0.010000 0.001000
v 0.075000 0.010000 0.001000
v 0.075000 0.015000 0.001000
v 0.070000 0.015000 0.001000
v 0.070000 0.015000 0.002200
v 0.075000 0.015000 0.002200
v 0.075000 0.020000 0.002200
v 0.070000 0.020000 0.002200
v 0.070000 0.020000 0.001660
v 0.075000 0.020000 0.001660
v 0.075000 0.025000 0.001660
v 0.070000 0.025000 0.001660
v 0.070000 0.025000 0.001858
v 0.075000 0.025000 0.001858
v 0.075000 0.030000 0.001858
v 0.070000 0.030000 0.001858
v 0.070000 0.030000 0.001760
v 0.075000 0.030000 0.001760
v 0.075000 0.035000 0.001760
v 0.070000 0.035000 0.001760
v 0.070000 0.035000 0.001996
v 0.075000 0.035000 0.001996
v 0.075000 0.040000 0.001996
v 0.070000 0.040000 0.001996
v 0.070000 0.040000 0.002599
v 0.075000 0.040000 0.002599
v 0.075000 0.045000 0.002599
v 0.070000 0.045000 0.002599
v 0.070000 0.045000 0.002145
v 0.075000 0.045000 0.002145
v 0.075000 0.050000 0.002145
v 0.070000 0.050000 0.002145
v 0.075000 0.000000 0.001987
v 0.080000 0.000000 0.001987
v 0.080000 0.005000 0.001987
v 0.075000 0.005000 0.001987
v 0.075000 0.005000 0.001548
v 0.080000 0.005000 0.001548
v 0.080000 0.010000 0.001548
v 0.075000 0.010000 0.001548
v 0.075000 0.010000 0.001229
v 0.080000 0.010000 0.001229
v 0.080000 0.015000 0.001229
v 0.075000 0.015000 0.001229
v 0.075000 0.015000 0.001823
v 0.080000 0.015000 0.001823
v 0.080000 0.020000 0.001823
v 0.075000 0.020000 0.001823
v 0.075000 0.020000 0.002039
v 0.080000 0.020000 0.002039
v 0.080000 0.025000 0.002039
v 0.075000 0.025000 0.002039
v 0.075000 0.025000 0.002950
v 0.080000 0.025000 0.002950
v 0.080000 0.030000 0.002950
v 0.075000 0.030000 0.002950
v 0.075000 0.030000 0.002131
v 0.080000 0.030000 0.002131
v 0.080000 0.035000 0.002131
v 0.075000 0.035000 0.002131
v 0.075000 0.035000 0.002557
v 0.080000 0.035000 0.002557
v 0.080000 0.040000 0.002557
v 0.075000 0.040000 0.002557
v 0.075000 0.040000 0.001816
v 0.080000 0.040000 0.001816
v 0.080000 0.045000 0.001816
v 0.075000 0.045000 0.001816
v 0.075000 0.045000 0.001474
v 0.080000 0.045000 0.001474
v 0.080000 0.050000 0.001474
v 0.075000 0.050000 0.001474
v 0.080000 0.000000 0.001583
v 0.085000 0.000000 0.001583
v 0.085000 0.005000 0.001583
v 0.080000 0.005000 0.001583
v 0.080000 0.005000 0.001703
v 0.085000 0.005000 0.001703
v 0.085000 0.010000 0.001703
v 0.080000 0.010000 0.001703
v 0.080000 0.010000 0.003130
v 0.085000 0.010000 0.003130
v 0.085000 0.015000 0.003130
v 0.080000 0.015000 0.003130
v 0.080000 0.015000 0.001655
v 0.085000 0.015000 0.001655
v 0.085000 0.020000 0.001655
v 0.080000 0.020000 0.001655
v 0.080000 0.020000 0.002485
v 0.085000 0.020000 0.002485
v 0.085000 0.025000 0.002485
v 0.080000 0.025000 0.002485
v 0.080000 0.025000 0.001615
v 0.085000 0.025000 0.001615
v 0.085000 0.030000 0.001615
v 0.080000 0.030000 0.001615
v 0.080000 0.030000 0.002532
v 0.085000 0.030000 0.002532
v 0.085000 0.035000 0.002532
v 0.080000 0.035000 0.002532
v 0.080000 0.035000 0.002258
v 0.085000 0.035000 0.002258
v 0.085000 0.040000 0.002258
v 0.080000 0.040000 0.002258
v 0.080000 0.040000 0.001988
v 0.085000 0.040000 0.001988
v 0.085000 0.045000 0.001988
v 0.080000 0.045000 0.001988
v 0.080000 0.045000 0.002046
v 0.085000 0.045000 0.002046
v 0.085000 0.050000 0.002046
v 0.080000 0.050000 0.002046
v 0.085000 0.000000 0.001739
v 0.090000 0.000000 0.001739
v 0.090000 0.005000 0.001739
v 0.085000 0.005000 0.001739
v 0.085000 0.005000 0.002289
v 0.090000 0.005000 0.002289
v 0.090000 0.010000 0.002289
v 0.085000 0.010000 0.002289
v 0.085000 0.010000 0.001839
v 0.090000 0.010000 0.001839
v 0.090000 0.015000 0.001839
v 0.085000 0.015000 0.001839
v 0.085000 0.015000 0.001453
v 0.090000 0.015000 0.001453
v 0.090000 0.020000 0.001453
v 0.085000 0.020000 0.001453
v 0.085000 0.020000 0.001427
v 0.090000 0.020000 0.001427
v 0.090000 0.025000 0.001427
v 0.085000 0.025000 0.001427
v 0.085000 0.025000 0.002152
v 0.090000 0.025000 0.002152
v 0.090000 0.030000 0.002152
v 0.085000 0.030000 0.002152
v 0.085000 0.030000 0.002856
v 0.090000 0.030000 0.002856
v 0.090000 0.035000 0.002856
v 0.085000 0.035000 0.002856
v 0.085000 0.035000 0.002146
v 0.090000 0.035000 0.002146
v 0.090000 0.040000 0.002146
v 0.085000 0.040000 0.002146
v 0.085000 0.040000 0.002007
v 0.090000 0.040000 0.002007
v 0.090000 0.045000 0.002007
v 0.085000 0.045000 0.002007
v 0.085000 0.045000 0.002209
v 0.090000 0.045000 0.002209
v 0.090000 0.050000 0.002209
v 0.085000 0.050000 0.002209
v 0.090000 0.000000 0.002719
v 0.095000 0.000000 0.002719
v 0.095000 0.005000 0.002719
v 0.090000 0.005000 0.002719
v 0.090000 0.005000 0.002176
v 0.095000 0.005000 0.002176
v 0.095000 0.010000 0.002176
v 0.090000 0.010000 0.002176
v 0.090000 0.010000 0.001861
v 0.095000 0.010000 0.001861
v 0.095000 0.015000 0.001861
v 0.090000 0.015000 0.001861
v 0.090000 0.015000 0.002619
v 0.095000 0.015000 0.002619
v 0.095000 0.020000 0.002619
v 0.090000 0.020000 0.002619
v 0.090000 0.020000 0.002280
v 0.095000 0.020000 0.002280
v 0.095000 0.025000 0.002280
v 0.090000 0.025000 0.002280
v 0.090000 0.025000 0.002834
v 0.095000 0.025000 0.002834
v 0.095000 0.030000 0.002834
v 0.090000 0.030000 0.002834
v 0.090000 0.030000 0.002158
v 0.095000 0.030000 0.002158
v 0.095000 0.035000 0.002158
v 0.090000 0.035000 0.002158
v 0.090000 0.035000 0.001454
v 0.095000 0.035000 0.001454
v 0.095000 0.040000 0.001454
v 0.090000 0.040000 0.001454
v 0.090000 0.040000 0.001382
v 0.095000 0.040000 0.001382
v 0.095000 0.045000 0.001382
v 0.090000 0.045000 0.001382
v 0.090000 0.045000 0.002891
v 0.095000 0.045000 0.002891
v 0.095000 0.050000 0.002891
v 0.090000 0.050000 0.002891
v 0.095000 0.000000 0.002928
v 0.100000 0.000000 0.002928
v 0.100000 0.005000 0.002928
v 0.095000 0.005000 0.002928
v 0.095000 0.005000 0.001976
v 0.100000 0.005000 0.001976
v 0.100000 0.010000 0.001976
v 0.095000 0.010000 0.001976
v 0.095000 0.010000 0.001874
v 0.100000 0.010000 0.001874
v 0.100000 0.015000 0.001874
v 0.095000 0.015000 0.001874
v 0.095000 0.015000 0.002797
v 0.100000 0.015000 0.002797
v 0.100000 0.020000 0.002797
v 0.095000 0.020000 0.002797
v 0.095000 0.020000 0.001513
v 0.100000 0.020000 0.001513
v 0.100000 0.025000 0.001513
v 0.095000 0.025000 0.001513
v 0.095000 0.025000 0.001619
v 0.100000 0.025000 0.001619
v 0.100000 0.030000 0.001619
v 0.095000 0.030000 0.001619
v 0.095000 0.030000 0.002388
v 0.100000 0.030000 0.002388
v 0.100000 0.035000 0.002388
v 0.095000 0.035000 0.002388
v 0.095000 0.035000 0.001869
v 0.100000 0.035000 0.001869
v 0.100000 0.040000 0.001869
v 0.095000 0.040000 0.001869
v 0.095000 0.040000 0.002063
v 0.100000 0.040000 0.002063
v 0.100000 0.045000 0.002063
v 0.095000 0.045000 0.002063
v 0.095000 0.045000 0.001984
v 0.100000 0.045000 0.001984
v 0.100000 0.050000 0.001984
v 0.095000 0.050000 0.001984
v 0.000000 0.000000 0.000000
v 0.000000 0.005000 0.000000
v 0.000000 0.010000 0.000000
v 0.000000 0.015000 0.000000
v 0.000000 0.020000 0.000000
v 0.000000 0.025000 0.000000
v 0.000000 0.030000 0.000000
v 0.000000 0.035000 0.000000
v 0.000000 0.040000 0.000000
v 0.000000 0.045000 0.000000
v 0.000000 0.050000 0.000000
v 0.005000 0.000000 0.000000
v 0.005000 0.005000 0.000000
v 0.005000 0.010000 0.000000
v 0.005000 0.015000 0.000000
v 0.005000 0.020000 0.000000
v 0.005000 0.025000 0.000000
v 0.005000 0.030000 0.000000
v 0.005000 0.035000 0.000000
v 0.005000 0.040000 0.000000
v 0.005000 0.045000 0.000000
v 0.005000 0.050000 0.000000
v 0.010000 0.000000 0.000000
v 0.010000 0.005000 0.000000
v 0.010000 0.010000 0.000000
v 0.010000 0.015000 0.000000
v 0.010000 0.020000 0.000000
v 0.010000 0.025000 0.000000
v 0.010000 0.030000 0.000000
v 0.010000 0.035000 0.000000
v 0.010000 0.040000 0.000000
v 0.010000 0.045000 0.000000
v 0.010000 0.050000 0.000000
v 0.015000 0.000000 0.000000
v 0.015000 0.005000 0.000000
v 0.015000 0.010000 0.000000
v 0.015000 0.015000 0.000000
v 0.015000 0.020000 0.000000
v 0.015000 0.025000 0.000000
v 0.015000 0.030000 0.000000
v 0.015000 0.035000 0.000000
v 0.015000 0.040000 0.000000
v 0.015000 0.045000 0.000000
v 0.015000 0.050000 0.000000
v 0.020000 0.000000 0.000000
v 0.020000 0.005000 0.000000
v 0.020000 0.010000 0.000000
v 0.020000 0.015000 0.000000
v 0.020000 0.020000 0.000000
v 0.020000 0.025000 0.000000
v 0.020000 0.030000 0.000000
v 0.020000 0.035000 0.000000
v 0.020000 0.040000 0.000000
v 0.020000 0.045000 0.000000
v 0.020000 0.050000 0.000000
v 0.025000 0.000000 0.000000
v 0.025000 0.005000 0.000000
v 0.025000 0.010000 0.000000
v 0.025000 0.015000 0.000000
v 0.025000 0.020000 0.000000
v 0.025000 0.025000 0.000000
v 0.025000 0.030000 0.000000
v 0.025000 0.035000 0.000000
v 0.025000 0.040000 0.000000
v 0.025000 0.045000 0.000000
v 0.025000 0.050000 0.000000
v 0.030000 0.000000 0.000000
v 0.030000 0.005000 0.000000
v 0.030000 0.010000 0.000000
v 0.030000 0.015000 0.000000
v 0.030000 0.020000 0.000000
v 0.030000 0.025000 0.000000
v 0.030000 0.030000 0.000000
v 0.030000 0.035000 0.000000
v 0.030000 0.040000 0.000000
v 0.030000 0.045000 0.000000
v 0.030000 0.050000 0.000000
v 0.035000 0.000000 0.000000
v 0.035000 0.005000 0.000000
v 0.035000 0.010000 0.000000
v 0.035000 0.015000 0.000000
v 0.035000 0.020000 0.000000
v 0.035000 0.025000 0.000000
v 0.035000 0.030000 0.000000
v 0.035000 0.035000 0.000000
v 0.035000 0.040000 0.000000
v 0.035000 0.045000 0.000000
v 0.035000 0.050000 0.000000
v 0.040000 0.000000 0.000000
v 0.040000 0.005000 0.000000
v 0.040000 0.010000 0.000000
v 0.040000 0.015000 0.000000
v 0.040000 0.020000 0.000000
v 0.040000 0.025000 0.000000
v 0.040000 0.030000 0.000000
v 0.040000 0.035000 0.000000
v 0.040000 0.040000 0.000000
v 0.040000 0.045000 0.000000
v 0.040000 0.050000 0.000000
v 0.045000 0.000000 0.000000
v 0.045000 0.005000 0.000000
v 0.045000 0.010000 0.000000
v 0.045000 0.015000 0.000000
v 0.045000 0.020000 0.000000
v 0.045000 0.025000 0.000000
v 0.045000 0.030000 0.000000
v 0.045000 0.035000 0.000000
v 0.045000 0.040000 0.000000
v 0.045000 0.045000 0.000000
v 0.045000 0.050000 0.000000
v 0.050000 0.000000 0.000000
v 0.050000 0.005000 0.000000
v 0.050000 0.010000 0.000000
v 0.050000 0.015000 0.000000
v 0.050000 0.020000 0.000000
v 0.050000 0.025000 0.000000
v 0.050000 0.030000 0.000000
v 0.050000 0.035000 0.000000
v 0.050000 0.040000 0.000000
v 0.050000 0.045000 0.000000
v 0.050000 0.050000 0.000000
v 0.055000 0.000000 0.000000
v 0.055000 0.005000 0.000000
v 0.055000 0.010000 0.000000
v 0.055000 0.015000 0.000000
v 0.055000 0.020000 0.000000
v 0.055000 0.025000 0.000000
v 0.055000 0.030000 0.000000
v 0.055000 0.035000 0.000000
v 0.055000 0.040000 0.000000
v 0.055000 0.045000 0.000000
v 0.055000 0.050000 0.000000
v 0.060000 0.000000 0.000000
v 0.060000 0.005000 0.000000
v 0.060000 0.010000 0.000000
v 0.060000 0.015000 0.000000
v 0.060000 0.020000 0.000000
v 0.060000 0.025000 0.000000
v 0.060000 0.030000 0.000000
v 0.060000 0.035000 0.000000
v 0.060000 0.040000 0.000000
v 0.060000 0.045000 0.000000
v 0.060000 0.050000 0.000000
v 0.065000 0.000000 0.000000
v 0.065000 0.005000 0.000000
v 0.065000 0.010000 0.000000
v 0.065000 0.015000 0.000000
v 0.065000 0.020000 0.000000
v 0.065000 0.025000 0.000000
v 0.065000 0.030000 0.000000
v 0.065000 0.035000 0.000000
v 0.065000 0.040000 0.000000
v 0.065000 0.045000 0.000000
v 0.065000 0.050000 0.000000
v 0.070000 0.000000 0.000000
v 0.070000 0.005000 0.000000
v 0.070000 0.010000 0.000000
v 0.070000 0.015000 0.000000
v 0.070000 0.020000 0.000000
v 0.070000 0.025000 0.000000
v 0.070000 0.030000 0.000000
v 0.070000 0.035000 0.000000
v 0.070000 0.040000 0.000000
v 0.070000 0.045000 0.000000
v 0.070000 0.050000 0.000000
v 0.075000 0.000000 0.000000
v 0.075000 0.005000 0.000000
v 0.075000 0.010000 0.000000
v 0.075000 0.015000 0.000000
v 0.075000 0.020000 0.000000
v 0.075000 0.025000 0.000000
v 0.075000 0.030000 0.000000
v 0.075000 0.035000 0.000000
v 0.075000 0.040000 0.000000
v 0.075000 0.045000 0.000000
v 0.075000 0.050000 0.000000
v 0.080000 0.000000 0.000000
v 0.080000 0.005000 0.000000
v 0.080000 0.010000 0.000000
v 0.080000 0.015000 0.000000
v 0.080000 0.020000 0.000000
v 0.080000 0.025000 0.000000
v 0.080000 0.030000 0.000000
v 0.080000 0.035000 0.000000
v 0.080000 0.040000 0.000000
v 0.080000 0.045000 0.000000
v 0.080000 0.050000 0.000000
v 0.085000 0.000000 0.000000
v 0.085000 0.005000 0.000000
v 0.085000 0.010000 0.000000
v 0.085000 0.015000 0.000000
v 0.085000 0.020000 0.000000
v 0.085000 0.025000 0.000000
v 0.085000 0.030000 0.000000
v 0.085000 0.035000 0.000000
v 0.085000 0.040000 0.000000
v 0.085000 0.045000 0.000000
v 0.085000 0.050000 0.000000
v 0.090000 0.000000 0.000000
v 0.090000 0.005000 0.000000
v 0.090000 0.010000 0.000000
v 0.090000 0.015000 0.000000
v 0.090000 0.020000 0.000000
v 0.090000 0.025000 0.000000
v 0.090000 0.030000 0.000000
v 0.090000 0.035000 0.000000
v 0.090000 0.040000 0.000000
v 0.090000 0.045000 0.000000
v 0.090000 0.050000 0.000000
v 0.095000 0.000000 0.000000
v 0.095000 0.005000 0.000000
v 0.095000 0.010000 0.000000
v 0.095000 0.015000 0.000000
v 0.095000 0.020000 0.000000
v 0.095000 0.025000 0.000000
v 0.095000 0.030000 0.000000
v 0.095000 0.035000 0.000000
v 0.095000 0.040000 0.000000
v 0.095000 0.045000 0.000000
v 0.095000 0.050000 0.000000
v 0.100000 0.000000 0.000000
v 0.100000 0.005000 0.000000
v 0.100000 0.010000 0.000000
v 0.100000 0.015000 0.000000
v 0.100000 0.020000 0.000000
v 0.100000 0.025000 0.000000
v 0.100000 0.030000 0.000000
v 0.100000 0.035000 0.000000
v 0.100000 0.040000 0.000000
v 0.100000 0.045000 0.000000
v 0.100000 0.050000 0.000000
f 1 2 3 4
f 5 6 7 8
f 9 10 11 12
f 13 14 15 16
f 17 18 19 20
f 21 22 23 24
f 25 26 27 28
f 29 30 31 32
f 33 34 35 36
f 37 38 39 40
f 41 42 43 44
f 45 46 47 48
f 49 50 51 52
f 53 54 55 56
f 57 58 59 60
f 61 62 63 64
f 65 66 67 68
f 69 70 71 72
f 73 74 75 76
f 77 78 79 80
f 81 82 83 84
f 85 86 87 88
f 89 90 91 92
f 93 94 95 96
f 97 98 99 100
f 101 102 103 104
f 105 106 107 108
f 109 110 111 112
f 113 114 115 116
f 117 118 119 120
f 121 122 123 124
f 125 126 127 128
f 129 130 131 132
f 133 134 135 136
f 137 138 139 140
f 141 142 143 144
f 145 146 147 148
f 149 150 151 152
f 153 154 155 156
f 157 158 159 160
f 161 162 163 164
f 165 166 167 168
f 169 170 171 172
f 173 174 175 176
f 177 178 179 180
f 181 182 183 184
f 185 186 187 188
f 189 190 191 192
f 193 194 195 196
f 197 198 199 200
f 201 202 203 204
f 205 206 207 208
f 209 210 211 212
f 213 214 215 216
f 217 218 219 220
f 221 222 223 224
f 225 226 227 228
f 229 230 231 232
f 233 234 235 236
f 237 238 239 240
f 241 242 243 244
f 245 246 247 248
f 249 250 251 252
f 253 254 255 256
f 257 258 259 260
f 261 262 263 264
f 265 266 267 268
f 269 270 271 272
f 273 274 275 276
f 277 278 279 280
f 281 282 283 284
f 285 286 287 288
f 289 290 291 292
f 293 294 295 296
f 297 298 299 300
f 301 302 303 304
f 305 306 307 308
f 309 310 311 312
f 313 314 315 316
f 317 318 319 320
f 321 322 323 324
f 325 326 327 328
f 329 330 331 332
f 333 334 335 336
f 337 338 339 340
f 341 342 343 344
f 345 346 347 348
f 349 350 351 352
f 353 354 355 356
f 357 358 359 360
f 361 362 363 364
f 365 366 367 368
f 369 370 371 372
f 373 374 375 376
f 377 378 379 380
f 381 382 383 384
f 385 386 387 388
f 389 390 391 392
f 393 394 395 396
f 397 398 399 400
f 401 402 403 404
f 405 406 407 408
f 409 410 411 412
f 413 414 415 416
f 417 418 419 420
f 421 422 423 424
f 425 426 427 428
f 429 430 431 432
f 433 434 435 436
f 437 438 439 440
f 441 442 443 444
f 445 446 447 448
f 449 450 451 452
f 453 454 455 456
f 457 458 459 460
f 461 462 463 464
f 465 466 467 468
f 469 470 471 472
f 473 474 475 476
f 477 478 479 480
f 481 482 483 484
f 485 486 487 488
f 489 490 491 492
f 493 494 495 496
f 497 498 499 500
f 501 502 503 504
f 505 506 507 508
f 509 510 511 512
f 513 514 515 516
f 517 518 519 520
f 521 522 523 524
f 525 526 527 528
f 529 530 531 532
f 533 534 535 536
f 537 538 539 540
f 541 542 543 544
f 545 546 547 548
f 549 550 551 552
f 553 554 555 556
f 557 558 559 560
f 561 562 563 564
f 565 566 567 568
f 569 570 571 572
f 573 574 575 576
f 577 578 579 580
f 581 582 583 584
f 585 586 587 588
f 589 590 591 592
f 593 594 595 596
f 597 598 599 600
f 601 602 603 604
f 605 606 607 608
f 609 610 611 612
f 613 614 615 616
f 617 618 619 620
f 621 622 623 624
f 625 626 627 628
f 629 630 631 632
f 633 634 635 636
f 637 638 639 640
f 641 642 643 644
f 645 646 647 648
f 649 650 651 652
f 653 654 655 656
f 657 658 659 660
f 661 662 663 664
f 665 666 667 668
f 669 670 671 672
f 673 674 675 676
f 677 678 679 680
f 681 682 683 684
f 685 686 687 688
f 689 690 691 692
f 693 694 695 696
f 697 698 699 700
f 701 702 703 704
f 705 706 707 708
f 709 710 711 712
f 713 714 715 716
f 717 718 719 720
f 721 722 723 724
f 725 726 727 728
f 729 730 731 732
f 733 734 735 736
f 737 738 739 740
f 741 742 743 744
f 745 746 747 748
f 749 750 751 752
f 753 754 755 756
f 757 758 759 760
f 761 762 763 764
f 765 766 767 768
f 769 770 771 772
f 773 774 775 776
f 777 778 779 780
f 781 782 783 784
f 785 786 787 788
f 789 790 791 792
f 793 794 795 796
f 797 798 799 800
f 801 802 813 812
f 802 803 814 813
f 803 804 815 814
f 804 805 816 815
f 805 806 817 816
f 806 807 818 817
f 807 808 819 818
f 808 809 820 819
f 809 810 821 820
f 810 811 822 821
f 812 813 824 823
f 813 814 825 824
f 814 815 826 825
f 815 816 827 826
f 816 817 828 827
f 817 818 829 828
f 818 819 830 829
f 819 820 831 830
f 820 821 832 831
f 821 822 833 832
f 823 824 835 834
f 824 825 836 835
f 825 826 837 836
f 826 827 838 837
f 827 828 839 838
f 828 829 840 839
f 829 830 841 840
f 830 831 842 841
f 831 832 843 842
f 832 833 844 843
f 834 835 846 845
f 835 836 847 846
f 836 837 848 847
f 837 838 849 848
f 838 839 850 849
f 839 840 851 850
f 840 841 852 851
f 841 842 853 852
f 842 843 854 853
f 843 844 855 854
f 845 846 857 856
f 846 847 858 857
f 847 848 859 858
f 848 849 860 859
f 849 850 861 860
f 850 851 862 861
f 851 852 863 862
f 852 853 864 863
f 853 854 865 864
f 854 855 866 865
f 856 857 868 867
f 857 858 869 868
f 858 859 870 869
f 859 860 871 870
f 860 861 872 871
f 861 862 873 872
f 862 863 874 873
f 863 864 875 874
f 864 865 876 875
f 865 866 877 876
f 867 868 879 878
f 868 869 880 879
f 869 870 881 880
f 870 871 882 881
f 871 872 883 882
f 872 873 884 883
f 873 874 885 884
f 874 875 886 885
f 875 876 887 886
f 876 877 888 887
f 878 879 890 889
f 879 880 891 890
f 880 881 892 891
f 881 882 893 892
f 882 883 894 893
f 883 884 895 894
f 884 885 896 895
f 885 886 897 896
f 886 887 898 897
f 887 888 899 898
f 889 890 901 900
f 890 891 902 901
f 891 892 903 902
f 892 893 904 903
f 893 894 905 904
f 894 895 906 905
f 895 896 907 906
f 896 897 908 907
f 897 898 909 908
f 898 899 910 909
f 900 901 912 911
f 901 902 913 912
f 902 903 914 913
f 903 904 915 914
f 904 905 916 915
f 905 906 917 916
f 906 907 918 917
f 907 908 919 918
f 908 909 920 919
f 909 910 921 920
f 911 912 923 922
f 912 913 924 923
f 913 914 925 924
f 914 915 926 925
f 915 916 927 926
f 916 917 928 927
f 917 918 929 928
f 918 919 930 929
f 919 920 931 930
f 920 921 932 931
f 922 923 934 933
f 923 924 935 934
f 924 925 936 935
f 925 926 937 936
f 926 927 938 937
f 927 928 939 938
f 928 929 940 939
f 929 930 941 940
f 930 931 942 941
f 931 932 943 942
f 933 934 945 944
f 934 935 946 945
f 935 936 947 946
f 936 937 948 947
f 937 938 949 948
f 938 939 950 949
f 939 940 951 950
f 940 941 952 951
f 941 942 953 952
f 942 943 954 953
f 944 945 956 955
f 945 946 957 956
f 946 947 958 957
f 947 948 959 958
f 948 949 960 959
f 949 950 961 960
f 950 951 962 961
f 951 952 963 962
f 952 953 964 963
f 953 954 965 964
f 955 956 967 966
f 956 957 968 967
f 957 958 969 968
f 958 959 970 969
f 959 960 971 970
f 960 961 972 971
f 961 962 973 972
f 962 963 974 973
f 963 964 975 974
f 964 965 976 975
f 966 967 978 977
f 967 968 979 978
f 968 969 980 979
f 969 970 981 980
f 970 971 982 981
f 971 972 983 982
f 972 973 984 983
f 973 974 985 984
f 974 975 986 985
f 975 976 987 986
f 977 978 989 988
f 978 979 990 989
f 979 980 991 990
f 980 981 992 991
f 981 982 993 992
f 982 983 994 993
f 983 984 995 994
f 984 985 996 995
f 985 986 997 996
f 986 987 998 997
f 988 989 1000 999
f 989 990 1001 1000
f 990 991 1002 1001
f 991 992 1003 1002
f 992 993 1004 1003
f 993 994 1005 1004
f 994 995 1006 1005
f 995 996 1007 1006
f 996 997 1008 1007
f 997 998 1009 1008
f 999 1000 1011 1010
f 1000 1001 1012 1011
f 1001 1002 1013 1012
f 1002 1003 1014 1013
f 1003 1004 1015 1014
f 1004 1005 1016 1015
f 1005 1006 1017 1016
f 1006 1007 1018 1017
f 1007 1008 1019 1018
f 1008 1009 1020 1019
f 1010 1011 1022 1021
f 1011 1012 1023 1022
f 1012 1013 1024 1023
f 1013 1014 1025 1024
f 1014 1015 1026 1025
f 1015 1016 1027 1026
f 1016 1017 1028 1027
f 1017 1018 1029 1028
f 1018 1019 1030 1029
f 1019 1020 1031 1030
f 41 44 3 2
f 45 48 7 6
f 49 52 11 10
f 53 56 15 14
f 57 60 19 18
f 61 64 23 22
f 65 68 27 26
f 69 72 31 30
f 73 76 35 34
f 77 80 39 38
f 81 84 43 42
f 85 88 47 46
f 89 92 51 50
f 93 96 55 54
f 97 100 59 58
f 101 104 63 62
f 105 108 67 66
f 109 112 71 70
f 113 116 75 74
f 117 120 79 78
f 121 124 83 82
f 125 128 87 86
f 129 132 91 90
f 133 136 95 94
f 137 140 99 98
f 141 144 103 102
f 145 148 107 106
f 149 152 111 110
f 153 156 115 114
f 157 160 119 118
f 161 164 123 122
f 165 168 127 126
f 169 172 131 130
f 173 176 135 134
f 177 180 139 138
f 181 184 143 142
f 185 188 147 146
f 189 192 151 150
f 193 196 155 154
f 197 200 159 158
f 201 204 163 162
f 205 208 167 166
f 209 212 171 170
f 213 216 175 174
f 217 220 179 178
f 221 224 183 182
f 225 228 187 186
f 229 232 191 190
f 233 236 195 194
f 237 240 199 198
f 241 244 203 202
f 245 248 207 206
f 249 252 211 210
f 253 256 215 214
f 257 260 219 218
f 261 264 223 222
f 265 268 227 226
f 269 272 231 230
f 273 276 235 234
f 277 280 239 238
f 281 284 243 242
f 285 288 247 246
f 289 292 251 250
f 293 296 255 254
f 297 300 259 258
f 301 304 263 262
f 305 308 267 266
f 309 312 271 270
f 313 316 275 274
f 317 320 279 278
f 321 324 283 282
f 325 328 287 286
f 329 332 291 290
f 333 336 295 294
f 337 340 299 298
f 341 344 303 302
f 345 348 307 306
f 349 352 311 310
f 353 356 315 314
f 357 360 319 318
f 361 364 323 322
f 365 368 327 326
f 369 372 331 330
f 373 376 335 334
f 377 380 339 338
f 381 384 343 342
f 385 388 347 346
f 389 392 351 350
f 393 396 355 354
f 397 400 359 358
f 401 404 363 362
f 405 408 367 366
f 409 412 371 370
f 413 416 375 374
f 417 420 379 378
f 421 424 383 382
f 425 428 387 386
f 429 432 391 390
f 433 436 395 394
f 437 440 399 398
f 441 444 403 402
f 445 448 407 406
f 449 452 411 410
f 453 456 415 414
f 457 460 419 418
f 461 464 423 422
f 465 468 427 426
f 469 472 431 430
f 473 476 435 434
f 477 480 439 438
f 481 484 443 442
f 485 488 447 446
f 489 492 451 450
f 493 496 455 454
f 497 500 459 458
f 501 504 463 462
f 505 508 467 466
f 509 512 471 470
f 513 516 475 474
f 517 520 479 478
f 521 524 483 482
f 525 528 487 486
f 529 532 491 490
f 533 536 495 494
f 537 540 499 498
f 541 544 503 502
f 545 548 507 506
f 549 552 511 510
f 553 556 515 514
f 557 560 519 518
f 561 564 523 522
f 565 568 527 526
f 569 572 531 530
f 573 576 535 534
f 577 580 539 538
f 581 584 543 542
f 585 588 547 546
f 589 592 551 550
f 593 596 555 554
f 597 600 559 558
f 601 604 563 562
f 605 608 567 566
f 609 612 571 570
f 613 616 575 574
f 617 620 579 578
f 621 624 583 582
f 625 628 587 586
f 629 632 591 590
f 633 636 595 594
f 637 640 599 598
f 641 644 603 602
f 645 648 607 606
f 649 652 611 610
f 653 656 615 614
f 657 660 619 618
f 661 664 623 622
f 665 668 627 626
f 669 672 631 630
f 673 676 635 634
f 677 680 639 638
f 681 684 643 642
f 685 688 647 646
f 689 692 651 650
f 693 696 655 654
f 697 700 659 658
f 701 704 663 662
f 705 708 667 666
f 709 712 671 670
f 713 716 675 674
f 717 720 679 678
f 721 724 683 682
f 725 728 687 686
f 729 732 691 690
f 733 736 695 694
f 737 740 699 698
f 741 744 703 702
f 745 748 707 706
f 749 752 711 710
f 753 756 715 714
f 757 760 719 718
f 761 764 723 722
f 765 768 727 726
f 769 772 731 730
f 773 776 735 734
f 777 780 739 738
f 781 784 743 742
f 785 788 747 746
f 789 792 751 750
f 793 796 755 754
f 797 800 759 758
f 4 3 6 5
f 8 7 10 9
f 12 11 14 13
f 16 15 18 17
f 20 19 22 21
f 24 23 26 25
f 28 27 30 29
f 32 31 34 33
f 36 35 38 37
f 44 43 46 45
f 48 47 50 49
f 52 51 54 53
f 56 55 58 57
f 60 59 62 61
f 64 63 66 65
f 68 67 70 69
f 72 71 74 73
f 76 75 78 77
f 84 83 86 85
f 88 87 90 89
f 92 91 94 93
f 96 95 98 97
f 100 99 102 101
f 104 103 106 105
f 108 107 110 109
f 112 111 114 113
f 116 115 118 117
f 124 123 126 125
f 128 127 130 129
f 132 131 134 133
f 136 135 138 137
f 140 139 142 141
f 144 143 146 145
f 148 147 150 149
f 152 151 154 153
f 156 155 158 157
f 164 163 166 165
f 168 167 170 169
f 172 171 174 173
f 176 175 178 177
f 180 179 182 181
f 184 183 186 185
f 188 187 190 189
f 192 191 194 193
f 196 195 198 197
f 204 203 206 205
f 208 207 210 209
f 212 211 214 213
f 216 215 218 217
f 220 219 222 221
f 224 223 226 225
f 228 227 230 229
f 232 231 234 233
f 236 235 238 237
f 244 243 246 245
f 248 247 250 249
f 252 251 254 253
f 256 255 258 257
f 260 259 262 261
f 264 263 266 265
f 268 267 270 269
f 272 271 274 273
f 276 275 278 277
f 284 283 286 285
f 288 287 290 289
f 292 291 294 293
f 296 295 298 297
f 300 299 302 301
f 304 303 306 305
f 308 307 310 309
f 312 311 314 313
f 316 315 318 317
f 324 323 326 325
f 328 327 330 329
f 332 331 334 333
f 336 335 338 337
f 340 339 342 341
f 344 343 346 345
f 348 347 350 349
f 352 351 354 353
f 356 355 358 357
f 364 363 366 365
f 368 367 370 369
f 372 371 374 373
f 376 375 378 377
f 380 379 382 381
f 384 383 386 385
f 388 387 390 389
f 392 391 394 393
f 396 395 398 397
f 404 403 406 405
f 408 407 410 409
f 412 411 414 413
f 416 415 418 417
f 420 419 422 421
f 424 423 426 425
f 428 427 430 429
f 432 431 434 433
f 436 435 438 437
f 444 443 446 445
f 448 447 450 449
f 452 451 454 453
f 456 455 458 457
f 460 459 462 461
f 464 463 466 465
f 468 467 470 469
f 472 471 474 473
f 476 475 478 477
f 484 483 486 485
f 488 487 490 489
f 492 491 494 493
f 496 495 498 497
f 500 499 502 501
f 504 503 506 505
f 508 507 510 509
f 512 511 514 513
f 516 515 518 517
f 524 523 526 525
f 528 527 530 529
f 532 531 534 533
f 536 535 538 537
f 540 539 542 541
f 544 543 546 545
f 548 547 550 549
f 552 551 554 553
f 556 555 558 557
f 564 563 566 565
f 568 567 570 569
f 572 571 574 573
f 576 575 578 577
f 580 579 582 581
f 584 583 586 585
f 588 587 590 589
f 592 591 594 593
f 596 595 598 597
f 604 603 606 605
f 608 607 610 609
f 612 611 614 613
f 616 615 618 617
f 620 619 622 621
f 624 623 626 625
f 628 627 630 629
f 632 631 634 633
f 636 635 638 637
f 644 643 646 645
f 648 647 650 649
f 652 651 654 653
f 656 655 658 657
f 660 659 662 661
f 664 663 666 665
f 668 667 670 669
f 672 671 674 673
f 676 675 678 677
f 684 683 686 685
f 688 687 690 689
f 692 691 694 693
f 696 695 698 697
f 700 699 702 701
f 704 703 706 705
f 708 707 710 709
f 712 711 714 713
f 716 715 718 717
f 724 723 726 725
f 728 727 730 729
f 732 731 734 733
f 736 735 738 737
f 740 739 742 741
f 744 743 746 745
f 748 747 750 749
f 752 751 754 753
f 756 755 758 757
f 764 763 766 765
f 768 767 770 769
f 772 771 774 773
f 776 775 778 777
f 780 779 782 781
f 784 783 786 785
f 788 787 790 789
f 792 791 794 793
f 796 795 798 797
f 801 812 2 1
f 812 823 42 41
f 823 834 82 81
f 834 845 122 121
f 845 856 162 161
f 856 867 202 201
f 867 878 242 241
f 878 889 282 281
f 889 900 322 321
f 900 911 362 361
f 911 922 402 401
f 922 933 442 441
f 933 944 482 481
f 944 955 522 521
f 955 966 562 561
f 966 977 602 601
f 977 988 642 641
f 988 999 682 681
f 999 1010 722 721
f 1010 1021 762 761
f 40 39 822 811
f 80 79 833 822
f 120 119 844 833
f 160 159 855 844
f 200 199 866 855
f 240 239 877 866
f 280 279 888 877
f 320 319 899 888
f 360 359 910 899
f 400 399 921 910
f 440 439 932 921
f 480 479 943 932
f 520 519 954 943
f 560 559 965 954
f 600 599 976 965
f 640 639 987 976
f 680 679 998 987
f 720 719 1009 998
f 760 759 1020 1009
f 800 799 1031 1020
f 1 4 802 801
f 5 8 803 802
f 9 12 804 803
f 13 16 805 804
f 17 20 806 805
f 21 24 807 806
f 25 28 808 807
f 29 32 809 808
f 33 36 810 809
f 37 40 811 810
f 1021 1022 763 762
f 1022 1023 767 766
f 1023 1024 771 770
f 1024 1025 775 774
f 1025 1026 779 778
f 1026 1027 783 782
f 1027 1028 787 786
f 1028 1029 791 790
f 1029 1030 795 794
f 1030 1031 799 798
